<?xml version="1.0" encoding="UTF-8"?>
<svg xmlns="http://www.w3.org/2000/svg" xmlns:xlink="http://www.w3.org/1999/xlink" width="472pt" height="343pt" viewBox="0 0 472 343" version="1.1">
<g id="surface97">
<rect x="0" y="0" width="472" height="343" style="fill:rgb(100%,100%,100%);fill-opacity:1;stroke:none;"/>
<path style="fill-rule:nonzero;fill:rgb(90.196078%,62.352941%,0%);fill-opacity:0.54902;stroke-width:0.213396;stroke-linecap:square;stroke-linejoin:miter;stroke:rgb(100%,100%,100%);stroke-opacity:1;stroke-miterlimit:10;" d="M 99.273438 308.226562 L 246.417969 308.226562 L 246.417969 293.027344 L 99.273438 293.027344 Z M 99.273438 308.226562 "/>
<path style="fill-rule:nonzero;fill:rgb(33.72549%,70.588235%,91.372549%);fill-opacity:0.54902;stroke-width:0.213396;stroke-linecap:square;stroke-linejoin:miter;stroke:rgb(100%,100%,100%);stroke-opacity:1;stroke-miterlimit:10;" d="M 99.273438 291.035156 L 246.417969 291.035156 L 246.417969 180.84375 L 99.273438 180.84375 Z M 99.273438 291.035156 "/>
<path style="fill-rule:nonzero;fill:rgb(0%,61.960784%,45.098039%);fill-opacity:0.54902;stroke-width:0.213396;stroke-linecap:square;stroke-linejoin:miter;stroke:rgb(100%,100%,100%);stroke-opacity:1;stroke-miterlimit:10;" d="M 99.273438 178.851562 L 246.417969 178.851562 L 246.417969 19.894531 L 99.273438 19.894531 Z M 99.273438 178.851562 "/>
<path style="fill-rule:nonzero;fill:rgb(90.196078%,62.352941%,0%);fill-opacity:0.901961;stroke-width:0.213396;stroke-linecap:square;stroke-linejoin:miter;stroke:rgb(100%,100%,100%);stroke-opacity:1;stroke-miterlimit:10;" d="M 248.003906 308.226562 L 265.371094 308.226562 L 265.371094 249.210938 L 248.003906 249.210938 Z M 248.003906 308.226562 "/>
<path style="fill-rule:nonzero;fill:rgb(33.72549%,70.588235%,91.372549%);fill-opacity:0.901961;stroke-width:0.213396;stroke-linecap:square;stroke-linejoin:miter;stroke:rgb(100%,100%,100%);stroke-opacity:1;stroke-miterlimit:10;" d="M 248.003906 247.21875 L 265.371094 247.21875 L 265.371094 118.457031 L 248.003906 118.457031 Z M 248.003906 247.21875 "/>
<path style="fill-rule:nonzero;fill:rgb(0%,61.960784%,45.098039%);fill-opacity:0.901961;stroke-width:0.213396;stroke-linecap:square;stroke-linejoin:miter;stroke:rgb(100%,100%,100%);stroke-opacity:1;stroke-miterlimit:10;" d="M 248.003906 116.46875 L 265.371094 116.46875 L 265.371094 19.898438 L 248.003906 19.898438 Z M 248.003906 116.46875 "/>
<path style="fill-rule:nonzero;fill:rgb(90.196078%,62.352941%,0%);fill-opacity:0.54902;stroke-width:0.213396;stroke-linecap:square;stroke-linejoin:miter;stroke:rgb(100%,100%,100%);stroke-opacity:1;stroke-miterlimit:10;" d="M 268.253906 308.226562 L 312.824219 308.226562 L 312.824219 247.59375 L 268.253906 247.59375 Z M 268.253906 308.226562 "/>
<path style="fill-rule:nonzero;fill:rgb(33.72549%,70.588235%,91.372549%);fill-opacity:0.54902;stroke-width:0.213396;stroke-linecap:square;stroke-linejoin:miter;stroke:rgb(100%,100%,100%);stroke-opacity:1;stroke-miterlimit:10;" d="M 268.253906 245.601562 L 312.824219 245.601562 L 312.824219 69.972656 L 268.253906 69.972656 Z M 268.253906 245.601562 "/>
<path style="fill-rule:nonzero;fill:rgb(0%,61.960784%,45.098039%);fill-opacity:0.54902;stroke-width:0.213396;stroke-linecap:square;stroke-linejoin:miter;stroke:rgb(100%,100%,100%);stroke-opacity:1;stroke-miterlimit:10;" d="M 268.253906 67.984375 L 312.824219 67.984375 L 312.824219 19.894531 L 268.253906 19.894531 Z M 268.253906 67.984375 "/>
<path style="fill-rule:nonzero;fill:rgb(90.196078%,62.352941%,0%);fill-opacity:0.901961;stroke-width:0.213396;stroke-linecap:square;stroke-linejoin:miter;stroke:rgb(100%,100%,100%);stroke-opacity:1;stroke-miterlimit:10;" d="M 313.710938 308.226562 L 361.230469 308.226562 L 361.230469 206.253906 L 313.710938 206.253906 Z M 313.710938 308.226562 "/>
<path style="fill-rule:nonzero;fill:rgb(33.72549%,70.588235%,91.372549%);fill-opacity:0.901961;stroke-width:0.213396;stroke-linecap:square;stroke-linejoin:miter;stroke:rgb(100%,100%,100%);stroke-opacity:1;stroke-miterlimit:10;" d="M 313.710938 204.261719 L 361.230469 204.261719 L 361.230469 47.378906 L 313.710938 47.378906 Z M 313.710938 204.261719 "/>
<path style="fill-rule:nonzero;fill:rgb(0%,61.960784%,45.098039%);fill-opacity:0.901961;stroke-width:0.213396;stroke-linecap:square;stroke-linejoin:miter;stroke:rgb(100%,100%,100%);stroke-opacity:1;stroke-miterlimit:10;" d="M 313.710938 45.390625 L 361.230469 45.390625 L 361.230469 19.898438 L 313.710938 19.898438 Z M 313.710938 45.390625 "/>
<path style="fill-rule:nonzero;fill:rgb(90.196078%,62.352941%,0%);fill-opacity:0.54902;stroke-width:0.213396;stroke-linecap:square;stroke-linejoin:miter;stroke:rgb(100%,100%,100%);stroke-opacity:1;stroke-miterlimit:10;" d="M 364.113281 308.226562 L 367.390625 308.226562 L 367.390625 137.617188 L 364.113281 137.617188 Z M 364.113281 308.226562 "/>
<path style="fill-rule:nonzero;fill:rgb(33.72549%,70.588235%,91.372549%);fill-opacity:0.54902;stroke-width:0.213396;stroke-linecap:square;stroke-linejoin:miter;stroke:rgb(100%,100%,100%);stroke-opacity:1;stroke-miterlimit:10;" d="M 364.113281 135.625 L 367.390625 135.625 L 367.390625 50.320312 L 364.113281 50.320312 Z M 364.113281 135.625 "/>
<path style="fill-rule:nonzero;fill:rgb(0%,61.960784%,45.098039%);fill-opacity:0.54902;stroke-width:0.213396;stroke-linecap:square;stroke-linejoin:miter;stroke:rgb(100%,100%,100%);stroke-opacity:1;stroke-miterlimit:10;" d="M 364.113281 48.332031 L 367.390625 48.332031 L 367.390625 19.898438 L 364.113281 19.898438 Z M 364.113281 48.332031 "/>
<path style="fill-rule:nonzero;fill:rgb(90.196078%,62.352941%,0%);fill-opacity:0.901961;stroke-width:0.213396;stroke-linecap:square;stroke-linejoin:miter;stroke:rgb(100%,100%,100%);stroke-opacity:1;stroke-miterlimit:10;" d="M 367.613281 308.226562 L 387.605469 308.226562 L 387.605469 84.476562 L 367.613281 84.476562 Z M 367.613281 308.226562 "/>
<path style="fill-rule:nonzero;fill:rgb(33.72549%,70.588235%,91.372549%);fill-opacity:0.901961;stroke-width:0.213396;stroke-linecap:square;stroke-linejoin:miter;stroke:rgb(100%,100%,100%);stroke-opacity:1;stroke-miterlimit:10;" d="M 367.613281 82.484375 L 387.605469 82.484375 L 387.605469 45.191406 L 367.613281 45.191406 Z M 367.613281 82.484375 "/>
<path style="fill-rule:nonzero;fill:rgb(0%,61.960784%,45.098039%);fill-opacity:0.901961;stroke-width:0.213396;stroke-linecap:square;stroke-linejoin:miter;stroke:rgb(100%,100%,100%);stroke-opacity:1;stroke-miterlimit:10;" d="M 367.613281 43.203125 L 387.605469 43.203125 L 387.605469 19.894531 L 367.613281 19.894531 Z M 367.613281 43.203125 "/>
</g>
</svg>
